<?xml version="1.0" encoding="UTF-8" standalone="no"?><!-- Generator: Gravit.io --><svg xmlns="http://www.w3.org/2000/svg" xmlns:xlink="http://www.w3.org/1999/xlink" style="isolation:isolate" viewBox="523.727 426.177 201.39 66.659" width="201.39pt" height="66.659pt"><g><linearGradient id="_lgradient_1" x1="0" y1="0.5" x2="1" y2="0.5" gradientTransform="matrix(66.657,0,0,66.659,658.46,426.177)" gradientUnits="userSpaceOnUse"><stop offset="0%" stop-opacity="1" style="stop-color:rgb(0,255,255)"/><stop offset="97.82608695652173%" stop-opacity="1" style="stop-color:rgb(74,134,232)"/></linearGradient><path d=" M 725.116 430.346 C 725.116 427.52 722.369 425.528 719.7 426.374 L 678.04 438.677 C 676.309 439.224 675.124 440.825 675.124 442.648 L 675.124 476.682 C 673.816 476.372 672.427 476.172 670.958 476.172 C 664.055 476.172 658.46 479.902 658.46 484.504 C 658.46 489.106 664.055 492.836 670.958 492.836 C 677.861 492.836 683.456 489.106 683.456 484.504 L 683.456 454.08 L 716.785 444.313 L 716.785 468.35 C 715.477 468.04 714.087 467.839 712.619 467.839 C 705.716 467.839 700.121 471.569 700.121 476.172 C 700.121 480.774 705.716 484.504 712.619 484.504 C 719.522 484.504 725.117 480.774 725.117 476.172 L 725.116 430.346 Z " fill="url(#_lgradient_1)"/><linearGradient id="_lgradient_2" x1="0" y1="0.5" x2="1" y2="0.5" gradientTransform="matrix(87.931,0,0,58.621,523.727,433.269)" gradientUnits="userSpaceOnUse"><stop offset="0%" stop-opacity="1" style="stop-color:rgb(71,137,232)"/><stop offset="97.3913043478261%" stop-opacity="1" style="stop-color:rgb(7,243,253)"/></linearGradient><path d=" M 575.05 433.269 L 531.024 433.269 C 526.994 433.269 523.727 436.536 523.727 440.566 L 523.727 484.592 C 523.727 488.622 526.994 491.889 531.024 491.889 L 575.05 491.889 C 579.081 491.889 582.347 488.622 582.347 484.592 L 582.347 440.566 C 582.347 436.536 579.081 433.269 575.05 433.269 Z  M 603.964 439.024 L 587.232 450.565 L 587.232 474.593 L 603.964 486.119 C 607.2 488.348 611.658 486.073 611.658 482.18 L 611.658 442.962 C 611.658 439.085 607.215 436.795 603.964 439.024 Z " fill="url(#_lgradient_2)"/><linearGradient id="_lgradient_3" x1="0" y1="0.5" x2="1" y2="0.5" gradientTransform="matrix(0,46.873,-30.266,0,654.205,439.143)" gradientUnits="userSpaceOnUse"><stop offset="0%" stop-opacity="1" style="stop-color:rgb(255,0,255)"/><stop offset="97.82608695652173%" stop-opacity="1" style="stop-color:rgb(255,153,0)"/></linearGradient><path d=" M 653.174 465.068 L 633.26 484.983 C 631.883 486.36 629.657 486.36 628.296 484.983 L 624.986 481.674 C 623.61 480.297 623.61 478.072 624.986 476.71 L 639.088 462.579 L 624.972 448.463 C 623.595 447.086 623.595 444.861 624.972 443.499 L 628.281 440.175 C 629.657 438.798 631.883 438.798 633.245 440.175 L 653.16 460.09 C 654.551 461.466 654.551 463.692 653.174 465.068 L 653.174 465.068 Z " fill="url(#_lgradient_3)"/></g></svg>