<?xml version="1.0" encoding="UTF-8" standalone="no"?><!-- Generator: Gravit.io --><svg xmlns="http://www.w3.org/2000/svg" xmlns:xlink="http://www.w3.org/1999/xlink" style="isolation:isolate" viewBox="887.652 413.5 136.836 109.109" width="136.836pt" height="109.109pt"><linearGradient id="_lgradient_4" x1="0" y1="0.5" x2="1" y2="0.5" gradientTransform="matrix(136.836,0,0,109.109,887.652,413.5)" gradientUnits="userSpaceOnUse"><stop offset="0%" stop-opacity="1" style="stop-color:rgb(0,98,255)"/><stop offset="98.26086956521739%" stop-opacity="1" style="stop-color:rgb(0,255,255)"/></linearGradient><path d=" M 997.154 454.316 L 995.401 457.374 C 994.759 458.507 993.391 458.978 992.172 458.529 C 989.649 457.588 987.339 456.241 985.308 454.552 C 984.324 453.739 984.068 452.307 984.709 451.195 L 986.463 448.137 C 984.987 446.426 983.833 444.438 983.063 442.278 L 979.535 442.278 C 978.252 442.278 977.14 441.359 976.926 440.076 C 976.499 437.51 976.477 434.816 976.926 432.143 C 977.14 430.86 978.252 429.919 979.535 429.919 L 983.063 429.919 C 983.833 427.759 984.987 425.771 986.463 424.06 L 984.709 421.003 C 984.068 419.891 984.303 418.458 985.308 417.646 C 987.339 415.956 989.67 414.609 992.172 413.668 C 993.391 413.219 994.759 413.69 995.401 414.823 L 997.154 417.881 C 999.399 417.474 1001.687 417.474 1003.932 417.881 L 1005.686 414.823 C 1006.327 413.69 1007.696 413.219 1008.914 413.668 C 1011.437 414.609 1013.747 415.956 1015.778 417.646 C 1016.762 418.458 1017.018 419.891 1016.377 421.003 L 1014.623 424.06 C 1016.099 425.771 1017.253 427.759 1018.023 429.919 L 1021.551 429.919 C 1022.834 429.919 1023.946 430.839 1024.16 432.121 C 1024.588 434.687 1024.609 437.382 1024.16 440.054 C 1023.946 441.337 1022.834 442.278 1021.551 442.278 L 1018.023 442.278 C 1017.253 444.438 1016.099 446.426 1014.623 448.137 L 1016.377 451.195 C 1017.018 452.307 1016.783 453.739 1015.778 454.552 C 1013.747 456.241 1011.416 457.588 1008.914 458.529 C 1007.696 458.978 1006.327 458.507 1005.686 457.374 L 1003.932 454.316 C 1001.708 454.723 999.399 454.723 997.154 454.316 L 997.154 454.316 Z  M 994.909 441.744 C 1003.141 448.073 1012.528 438.686 1006.199 430.454 C 997.967 424.103 988.58 433.511 994.909 441.744 L 994.909 441.744 Z  M 970.255 474.651 L 977.461 478.243 C 979.62 479.484 980.561 482.114 979.706 484.466 C 977.803 489.64 974.061 494.387 970.597 498.535 C 969.015 500.438 966.278 500.909 964.118 499.669 L 957.896 496.076 C 954.475 499.006 950.497 501.337 946.157 502.855 L 946.157 510.039 C 946.157 512.52 944.382 514.658 941.944 515.085 C 936.684 515.984 931.168 516.026 925.715 515.085 C 923.256 514.658 921.439 512.541 921.439 510.039 L 921.439 502.855 C 917.098 501.315 913.121 499.006 909.7 496.076 L 903.477 499.647 C 901.339 500.887 898.581 500.417 896.998 498.514 C 893.535 494.366 889.878 489.619 887.975 484.466 C 887.12 482.135 888.061 479.505 890.22 478.243 L 897.341 474.651 C 896.507 470.182 896.507 465.585 897.341 461.095 L 890.22 457.481 C 888.061 456.241 887.098 453.611 887.975 451.28 C 889.878 446.106 893.535 441.359 896.998 437.211 C 898.581 435.307 901.318 434.837 903.477 436.077 L 909.7 439.669 C 913.121 436.74 917.098 434.409 921.439 432.891 L 921.439 425.685 C 921.439 423.226 923.192 421.088 925.63 420.66 C 930.89 419.762 936.428 419.72 941.88 420.639 C 944.339 421.067 946.157 423.184 946.157 425.685 L 946.157 432.87 C 950.497 434.409 954.475 436.719 957.896 439.648 L 964.118 436.056 C 966.256 434.816 969.015 435.286 970.597 437.189 C 974.061 441.337 977.696 446.084 979.599 451.259 C 980.454 453.589 979.62 456.22 977.461 457.481 L 970.255 461.073 C 971.089 465.564 971.089 470.161 970.255 474.651 L 970.255 474.651 Z  M 945.109 479.163 C 957.767 462.698 938.972 443.903 922.508 456.562 C 909.849 473.026 928.645 491.821 945.109 479.163 Z  M 997.154 518.229 L 995.401 521.286 C 994.759 522.42 993.391 522.89 992.172 522.441 C 989.649 521.5 987.339 520.153 985.308 518.464 C 984.324 517.651 984.068 516.219 984.709 515.107 L 986.463 512.049 C 984.987 510.339 983.833 508.35 983.063 506.19 L 979.535 506.19 C 978.252 506.19 977.14 505.271 976.926 503.988 C 976.499 501.422 976.477 498.728 976.926 496.055 C 977.14 494.772 978.252 493.831 979.535 493.831 L 983.063 493.831 C 983.833 491.672 984.987 489.683 986.463 487.972 L 984.709 484.915 C 984.068 483.803 984.303 482.37 985.308 481.558 C 987.339 479.869 989.67 478.521 992.172 477.581 C 993.391 477.132 994.759 477.602 995.401 478.735 L 997.154 481.793 C 999.399 481.387 1001.687 481.387 1003.932 481.793 L 1005.686 478.735 C 1006.327 477.602 1007.696 477.132 1008.914 477.581 C 1011.437 478.521 1013.747 479.869 1015.778 481.558 C 1016.762 482.37 1017.018 483.803 1016.377 484.915 L 1014.623 487.972 C 1016.099 489.683 1017.253 491.672 1018.023 493.831 L 1021.551 493.831 C 1022.834 493.831 1023.946 494.751 1024.16 496.034 C 1024.588 498.6 1024.609 501.294 1024.16 503.967 C 1023.946 505.25 1022.834 506.19 1021.551 506.19 L 1018.023 506.19 C 1017.253 508.35 1016.099 510.339 1014.623 512.049 L 1016.377 515.107 C 1017.018 516.219 1016.783 517.651 1015.778 518.464 C 1013.747 520.153 1011.416 521.5 1008.914 522.441 C 1007.696 522.89 1006.327 522.42 1005.686 521.286 L 1003.932 518.229 C 1001.708 518.635 999.399 518.635 997.154 518.229 Z  M 994.909 505.634 C 1003.141 511.964 1012.528 502.577 1006.199 494.344 C 997.967 488.015 988.58 497.402 994.909 505.634 L 994.909 505.634 Z " fill="url(#_lgradient_4)"/></svg>