<?xml version="1.0" encoding="UTF-8" standalone="no"?><!-- Generator: Gravit.io --><svg xmlns="http://www.w3.org/2000/svg" xmlns:xlink="http://www.w3.org/1999/xlink" style="isolation:isolate" viewBox="28.348 200.18 607.08 161.82" width="607.08pt" height="161.82pt"><g><linearGradient id="_lgradient_0" x1="0" y1="0.5" x2="1" y2="0.5" gradientTransform="matrix(607.08,0,0,75.977,28.348,200.18)" gradientUnits="userSpaceOnUse"><stop offset="0%" stop-opacity="1" style="stop-color:rgb(74,134,232)"/><stop offset="97.3913043478261%" stop-opacity="1" style="stop-color:rgb(0,255,255)"/></linearGradient><path d=" M 466.043 275.18 L 438.406 275.18 L 438.406 204.086 L 463.309 204.086 L 463.309 204.086 Q 476.248 204.086 482.938 209.042 L 482.938 209.042 L 482.938 209.042 Q 489.627 213.998 489.627 223.568 L 489.627 223.568 L 489.627 223.568 Q 489.627 228.793 486.941 232.772 L 486.941 232.772 L 486.941 232.772 Q 484.256 236.752 479.471 238.607 L 479.471 238.607 L 479.471 238.607 Q 484.939 239.975 488.089 244.125 L 488.089 244.125 L 488.089 244.125 Q 491.238 248.275 491.238 254.281 L 491.238 254.281 L 491.238 254.281 Q 491.238 264.535 484.695 269.809 L 484.695 269.809 L 484.695 269.809 Q 478.152 275.082 466.043 275.18 L 466.043 275.18 Z  M 466.482 244.223 L 453.055 244.223 L 453.055 263.412 L 465.604 263.412 L 465.604 263.412 Q 470.779 263.412 473.685 260.946 L 473.685 260.946 L 473.685 260.946 Q 476.59 258.48 476.59 254.135 L 476.59 254.135 L 476.59 254.135 Q 476.59 244.369 466.482 244.223 L 466.482 244.223 Z  M 453.055 215.951 L 453.055 233.871 L 463.895 233.871 L 463.895 233.871 Q 474.979 233.676 474.979 225.033 L 474.979 225.033 L 474.979 225.033 Q 474.979 220.199 472.171 218.075 L 472.171 218.075 L 472.171 218.075 Q 469.363 215.951 463.309 215.951 L 463.309 215.951 L 453.055 215.951 Z  M 525.613 276.156 L 525.613 276.156 L 525.613 276.156 Q 513.992 276.156 506.692 269.027 L 506.692 269.027 L 506.692 269.027 Q 499.393 261.898 499.393 250.033 L 499.393 250.033 L 499.393 248.666 L 499.393 248.666 Q 499.393 240.707 502.469 234.433 L 502.469 234.433 L 502.469 234.433 Q 505.545 228.158 511.185 224.765 L 511.185 224.765 L 511.185 224.765 Q 516.824 221.371 524.051 221.371 L 524.051 221.371 L 524.051 221.371 Q 534.891 221.371 541.116 228.207 L 541.116 228.207 L 541.116 228.207 Q 547.342 235.043 547.342 247.592 L 547.342 247.592 L 547.342 253.354 L 513.699 253.354 L 513.699 253.354 Q 514.383 258.529 517.825 261.654 L 517.825 261.654 L 517.825 261.654 Q 521.268 264.779 526.541 264.779 L 526.541 264.779 L 526.541 264.779 Q 534.695 264.779 539.285 258.871 L 539.285 258.871 L 546.219 266.635 L 546.219 266.635 Q 543.045 271.127 537.625 273.642 L 537.625 273.642 L 537.625 273.642 Q 532.205 276.156 525.613 276.156 Z  M 524.002 232.797 L 524.002 232.797 L 524.002 232.797 Q 519.803 232.797 517.19 235.629 L 517.19 235.629 L 517.19 235.629 Q 514.578 238.461 513.846 243.734 L 513.846 243.734 L 533.475 243.734 L 533.475 242.611 L 533.475 242.611 Q 533.377 237.924 530.936 235.36 L 530.936 235.36 L 530.936 235.36 Q 528.494 232.797 524.002 232.797 Z  M 600.223 275.18 L 585.965 275.18 L 585.965 275.18 Q 584.988 273.275 584.549 270.443 L 584.549 270.443 L 584.549 270.443 Q 579.422 276.156 571.219 276.156 L 571.219 276.156 L 571.219 276.156 Q 563.455 276.156 558.353 271.664 L 558.353 271.664 L 558.353 271.664 Q 553.25 267.172 553.25 260.336 L 553.25 260.336 L 553.25 260.336 Q 553.25 251.938 559.476 247.445 L 559.476 247.445 L 559.476 247.445 Q 565.701 242.953 577.469 242.904 L 577.469 242.904 L 583.963 242.904 L 583.963 239.877 L 583.963 239.877 Q 583.963 236.215 582.083 234.018 L 582.083 234.018 L 582.083 234.018 Q 580.203 231.82 576.15 231.82 L 576.15 231.82 L 576.15 231.82 Q 572.586 231.82 570.56 233.529 L 570.56 233.529 L 570.56 233.529 Q 568.533 235.238 568.533 238.217 L 568.533 238.217 L 554.422 238.217 L 554.422 238.217 Q 554.422 233.627 557.254 229.721 L 557.254 229.721 L 557.254 229.721 Q 560.086 225.814 565.262 223.593 L 565.262 223.593 L 565.262 223.593 Q 570.438 221.371 576.883 221.371 L 576.883 221.371 L 576.883 221.371 Q 586.648 221.371 592.386 226.278 L 592.386 226.278 L 592.386 226.278 Q 598.123 231.186 598.123 240.072 L 598.123 240.072 L 598.123 262.973 L 598.123 262.973 Q 598.172 270.492 600.223 274.35 L 600.223 274.35 L 600.223 275.18 Z  M 574.295 265.365 L 574.295 265.365 L 574.295 265.365 Q 577.42 265.365 580.057 263.974 L 580.057 263.974 L 580.057 263.974 Q 582.693 262.582 583.963 260.238 L 583.963 260.238 L 583.963 251.156 L 578.689 251.156 L 578.689 251.156 Q 568.094 251.156 567.41 258.48 L 567.41 258.48 L 567.361 259.311 L 567.361 259.311 Q 567.361 261.947 569.217 263.656 L 569.217 263.656 L 569.217 263.656 Q 571.072 265.365 574.295 265.365 Z  M 611.746 209.359 L 625.857 209.359 L 625.857 222.348 L 634.891 222.348 L 634.891 232.699 L 625.857 232.699 L 625.857 259.066 L 625.857 259.066 Q 625.857 261.996 626.98 263.266 L 626.98 263.266 L 626.98 263.266 Q 628.104 264.535 631.277 264.535 L 631.277 264.535 L 631.277 264.535 Q 633.621 264.535 635.428 264.193 L 635.428 264.193 L 635.428 274.887 L 635.428 274.887 Q 631.277 276.156 626.883 276.156 L 626.883 276.156 L 626.883 276.156 Q 612.039 276.156 611.746 261.166 L 611.746 261.166 L 611.746 232.699 L 604.031 232.699 L 604.031 222.348 L 611.746 222.348 L 611.746 209.359 Z  M 295.145 204.086 L 295.145 215.951 L 273.367 215.951 L 273.367 275.18 L 258.719 275.18 L 258.719 215.951 L 237.234 215.951 L 237.234 204.086 L 295.145 204.086 Z  M 316.336 200.18 L 316.336 228.109 L 316.336 228.109 Q 321.951 221.371 330.447 221.371 L 330.447 221.371 L 330.447 221.371 Q 347.635 221.371 347.879 241.342 L 347.879 241.342 L 347.879 275.18 L 333.768 275.18 L 333.768 241.732 L 333.768 241.732 Q 333.768 237.191 331.814 235.019 L 331.814 235.019 L 331.814 235.019 Q 329.861 232.846 325.32 232.846 L 325.32 232.846 L 325.32 232.846 Q 319.119 232.846 316.336 237.631 L 316.336 237.631 L 316.336 275.18 L 302.225 275.18 L 302.225 200.18 L 316.336 200.18 Z  M 382.84 276.156 L 382.84 276.156 L 382.84 276.156 Q 371.219 276.156 363.919 269.027 L 363.919 269.027 L 363.919 269.027 Q 356.619 261.898 356.619 250.033 L 356.619 250.033 L 356.619 248.666 L 356.619 248.666 Q 356.619 240.707 359.695 234.433 L 359.695 234.433 L 359.695 234.433 Q 362.771 228.158 368.411 224.765 L 368.411 224.765 L 368.411 224.765 Q 374.051 221.371 381.277 221.371 L 381.277 221.371 L 381.277 221.371 Q 392.117 221.371 398.343 228.207 L 398.343 228.207 L 398.343 228.207 Q 404.568 235.043 404.568 247.592 L 404.568 247.592 L 404.568 253.354 L 370.926 253.354 L 370.926 253.354 Q 371.609 258.529 375.052 261.654 L 375.052 261.654 L 375.052 261.654 Q 378.494 264.779 383.768 264.779 L 383.768 264.779 L 383.768 264.779 Q 391.922 264.779 396.512 258.871 L 396.512 258.871 L 403.445 266.635 L 403.445 266.635 Q 400.271 271.127 394.852 273.642 L 394.852 273.642 L 394.852 273.642 Q 389.432 276.156 382.84 276.156 Z  M 381.229 232.797 L 381.229 232.797 L 381.229 232.797 Q 377.029 232.797 374.417 235.629 L 374.417 235.629 L 374.417 235.629 Q 371.805 238.461 371.072 243.734 L 371.072 243.734 L 390.701 243.734 L 390.701 242.611 L 390.701 242.611 Q 390.604 237.924 388.162 235.36 L 388.162 235.36 L 388.162 235.36 Q 385.721 232.797 381.229 232.797 Z  M 71.121 234.311 L 71.121 246.127 L 42.996 246.127 L 42.996 275.18 L 28.348 275.18 L 28.348 204.086 L 74.637 204.086 L 74.637 215.951 L 42.996 215.951 L 42.996 234.311 L 71.121 234.311 Z  M 105.496 276.156 L 105.496 276.156 L 105.496 276.156 Q 93.875 276.156 86.575 269.027 L 86.575 269.027 L 86.575 269.027 Q 79.275 261.898 79.275 250.033 L 79.275 250.033 L 79.275 248.666 L 79.275 248.666 Q 79.275 240.707 82.352 234.433 L 82.352 234.433 L 82.352 234.433 Q 85.428 228.158 91.067 224.765 L 91.067 224.765 L 91.067 224.765 Q 96.707 221.371 103.934 221.371 L 103.934 221.371 L 103.934 221.371 Q 114.773 221.371 120.999 228.207 L 120.999 228.207 L 120.999 228.207 Q 127.225 235.043 127.225 247.592 L 127.225 247.592 L 127.225 253.354 L 93.582 253.354 L 93.582 253.354 Q 94.266 258.529 97.708 261.654 L 97.708 261.654 L 97.708 261.654 Q 101.15 264.779 106.424 264.779 L 106.424 264.779 L 106.424 264.779 Q 114.578 264.779 119.168 258.871 L 119.168 258.871 L 126.102 266.635 L 126.102 266.635 Q 122.928 271.127 117.508 273.642 L 117.508 273.642 L 117.508 273.642 Q 112.088 276.156 105.496 276.156 Z  M 103.885 232.797 L 103.885 232.797 L 103.885 232.797 Q 99.686 232.797 97.073 235.629 L 97.073 235.629 L 97.073 235.629 Q 94.461 238.461 93.729 243.734 L 93.729 243.734 L 113.357 243.734 L 113.357 242.611 L 113.357 242.611 Q 113.26 237.924 110.818 235.36 L 110.818 235.36 L 110.818 235.36 Q 108.377 232.797 103.885 232.797 Z  M 159.549 276.156 L 159.549 276.156 L 159.549 276.156 Q 147.928 276.156 140.628 269.027 L 140.628 269.027 L 140.628 269.027 Q 133.328 261.898 133.328 250.033 L 133.328 250.033 L 133.328 248.666 L 133.328 248.666 Q 133.328 240.707 136.404 234.433 L 136.404 234.433 L 136.404 234.433 Q 139.48 228.158 145.12 224.765 L 145.12 224.765 L 145.12 224.765 Q 150.76 221.371 157.986 221.371 L 157.986 221.371 L 157.986 221.371 Q 168.826 221.371 175.052 228.207 L 175.052 228.207 L 175.052 228.207 Q 181.277 235.043 181.277 247.592 L 181.277 247.592 L 181.277 253.354 L 147.635 253.354 L 147.635 253.354 Q 148.318 258.529 151.761 261.654 L 151.761 261.654 L 151.761 261.654 Q 155.203 264.779 160.477 264.779 L 160.477 264.779 L 160.477 264.779 Q 168.631 264.779 173.221 258.871 L 173.221 258.871 L 180.154 266.635 L 180.154 266.635 Q 176.98 271.127 171.561 273.642 L 171.561 273.642 L 171.561 273.642 Q 166.141 276.156 159.549 276.156 Z  M 157.938 232.797 L 157.938 232.797 L 157.938 232.797 Q 153.738 232.797 151.126 235.629 L 151.126 235.629 L 151.126 235.629 Q 148.514 238.461 147.781 243.734 L 147.781 243.734 L 167.41 243.734 L 167.41 242.611 L 167.41 242.611 Q 167.313 237.924 164.871 235.36 L 164.871 235.36 L 164.871 235.36 Q 162.43 232.797 157.938 232.797 Z  M 204.178 200.18 L 204.178 275.18 L 190.018 275.18 L 190.018 200.18 L 204.178 200.18 Z " fill="url(#_lgradient_0)"/><text transform="matrix(1,0,0,1,190.214,349.793)" style="font-family:'Roboto';font-weight:100;font-size:50px;font-style:normal;fill:#00aad4;stroke:none;">Music Player</text></g></svg>